<?xml version="1.0" encoding="UTF-8" standalone="no"?>
<!-- Created with Inkscape (http://www.inkscape.org/) -->

<svg
   xmlns:dc="http://purl.org/dc/elements/1.1/"
   xmlns:cc="http://creativecommons.org/ns#"
   xmlns:rdf="http://www.w3.org/1999/02/22-rdf-syntax-ns#"
   xmlns:svg="http://www.w3.org/2000/svg"
   xmlns="http://www.w3.org/2000/svg"
   xmlns:xlink="http://www.w3.org/1999/xlink"
   xmlns:sodipodi="http://sodipodi.sourceforge.net/DTD/sodipodi-0.dtd"
   xmlns:inkscape="http://www.inkscape.org/namespaces/inkscape"
   width="273.46786"
   height="273.46786"
   id="svg4483"
   version="1.1"
   inkscape:version="0.48.1 r9760"
   sodipodi:docname="New document 8">
  <defs
     id="defs4485">
    <filter
       color-interpolation-filters="sRGB"
       inkscape:collect="always"
       id="filter3914"
       x="-0.12255319"
       width="1.2451065"
       y="-0.12255319"
       height="1.2451065">
      <feGaussianBlur
         inkscape:collect="always"
         stdDeviation="30.05471"
         id="feGaussianBlur3916" />
    </filter>
    <linearGradient
       inkscape:collect="always"
       xlink:href="#linearGradient3828"
       id="linearGradient3998"
       gradientUnits="userSpaceOnUse"
       x1="200"
       y1="215.21933"
       x2="720"
       y2="720.93359" />
    <linearGradient
       inkscape:collect="always"
       id="linearGradient3828">
      <stop
         style="stop-color:#cccccc;stop-opacity:1;"
         offset="0"
         id="stop3830" />
      <stop
         style="stop-color:#cccccc;stop-opacity:0;"
         offset="1"
         id="stop3832" />
    </linearGradient>
    <radialGradient
       inkscape:collect="always"
       xlink:href="#linearGradient3846"
       id="radialGradient4000"
       gradientUnits="userSpaceOnUse"
       gradientTransform="matrix(1.4585921,0.05255715,-0.05331491,1.4796222,-179.18738,-286.06043)"
       cx="454.28571"
       cy="546.64789"
       fx="454.28571"
       fy="546.64789"
       r="294.28571" />
    <linearGradient
       id="linearGradient3846">
      <stop
         style="stop-color:#fff5f5;stop-opacity:0;"
         offset="0"
         id="stop3848" />
      <stop
         style="stop-color:#1a0000;stop-opacity:1;"
         offset="1"
         id="stop3850" />
    </linearGradient>
    <filter
       color-interpolation-filters="sRGB"
       inkscape:collect="always"
       id="filter3904">
      <feGaussianBlur
         inkscape:collect="always"
         stdDeviation="9.5291708"
         id="feGaussianBlur3906" />
    </filter>
  </defs>
  <sodipodi:namedview
     id="base"
     pagecolor="#ffffff"
     bordercolor="#666666"
     borderopacity="1.0"
     inkscape:pageopacity="0.0"
     inkscape:pageshadow="2"
     inkscape:zoom="0.35"
     inkscape:cx="151.73393"
     inkscape:cy="185.30536"
     inkscape:document-units="px"
     inkscape:current-layer="layer1"
     showgrid="false"
     fit-margin-top="0"
     fit-margin-left="0"
     fit-margin-right="0"
     fit-margin-bottom="0"
     inkscape:window-width="482"
     inkscape:window-height="424"
     inkscape:window-x="702"
     inkscape:window-y="24"
     inkscape:window-maximized="0" />
  <metadata
     id="metadata4488">
    <rdf:RDF>
      <cc:Work
         rdf:about="">
        <dc:format>image/svg+xml</dc:format>
        <dc:type
           rdf:resource="http://purl.org/dc/dcmitype/StillImage" />
        <dc:title></dc:title>
      </cc:Work>
    </rdf:RDF>
  </metadata>
  <g
     inkscape:label="Layer 1"
     inkscape:groupmode="layer"
     id="layer1"
     transform="translate(-223.26607,-444.19967)">
    <g
       id="g3966"
       transform="matrix(0.85085014,0,0,0.85085014,-539.47014,436.71023)">
      <path
         sodipodi:type="arc"
         style="fill:#000000;stroke:#777777;stroke-width:5;stroke-miterlimit:4;stroke-opacity:1;stroke-dasharray:none"
         id="path3934"
         sodipodi:cx="454.28571"
         sodipodi:cy="546.64789"
         sodipodi:rx="294.28571"
         sodipodi:ry="294.28571"
         d="m 748.57141,546.64789 c 0,162.52951 -131.7562,294.2857 -294.2857,294.2857 C 291.7562,840.93359 160,709.1774 160,546.64789 160,384.11838 291.7562,252.36218 454.28571,252.36218 c 162.5295,0 294.2857,131.7562 294.2857,294.28571 z"
         transform="matrix(0.43857878,0,0,0.43857878,857.90278,-70.243136)" />
      <path
         sodipodi:type="arc"
         style="fill:#000000;fill-opacity:1;stroke:none;filter:url(#filter3914)"
         id="path3936"
         sodipodi:cx="454.28571"
         sodipodi:cy="546.64789"
         sodipodi:rx="294.28571"
         sodipodi:ry="294.28571"
         d="m 748.57141,546.64789 c 0,162.52951 -131.7562,294.2857 -294.2857,294.2857 C 291.7562,840.93359 160,709.1774 160,546.64789 160,384.11838 291.7562,252.36218 454.28571,252.36218 c 162.5295,0 294.2857,131.7562 294.2857,294.28571 z"
         transform="matrix(0.43857878,0,0,0.43857878,857.90278,-70.243136)" />
      <path
         transform="matrix(0.43857878,0,0,0.43857878,857.90278,-70.243136)"
         d="m 748.57141,546.64789 c 0,162.52951 -131.7562,294.2857 -294.2857,294.2857 C 291.7562,840.93359 160,709.1774 160,546.64789 160,384.11838 291.7562,252.36218 454.28571,252.36218 c 162.5295,0 294.2857,131.7562 294.2857,294.28571 z"
         sodipodi:ry="294.28571"
         sodipodi:rx="294.28571"
         sodipodi:cy="546.64789"
         sodipodi:cx="454.28571"
         id="path3938"
         style="fill:url(#linearGradient3998);fill-opacity:1;stroke:none"
         sodipodi:type="arc" />
      <path
         sodipodi:type="arc"
         style="fill:#008000;stroke:none"
         id="path3940"
         sodipodi:cx="454.28571"
         sodipodi:cy="546.64789"
         sodipodi:rx="294.28571"
         sodipodi:ry="294.28571"
         d="m 748.57141,546.64789 c 0,162.52951 -131.7562,294.2857 -294.2857,294.2857 C 291.7562,840.93359 160,709.1774 160,546.64789 160,384.11838 291.7562,252.36218 454.28571,252.36218 c 162.5295,0 294.2857,131.7562 294.2857,294.28571 z"
         transform="matrix(0.39002373,0,0,0.39002373,879.96065,-43.70062)" />
      <path
         transform="matrix(0.39002373,0,0,0.39002373,879.96065,-43.70062)"
         d="m 748.57141,546.64789 c 0,162.52951 -131.7562,294.2857 -294.2857,294.2857 C 291.7562,840.93359 160,709.1774 160,546.64789 160,384.11838 291.7562,252.36218 454.28571,252.36218 c 162.5295,0 294.2857,131.7562 294.2857,294.28571 z"
         sodipodi:ry="294.28571"
         sodipodi:rx="294.28571"
         sodipodi:cy="546.64789"
         sodipodi:cx="454.28571"
         id="path3942"
         style="opacity:0.61904764;fill:url(#radialGradient4000);fill-opacity:1;stroke:none"
         sodipodi:type="arc" />
      <path
         d="m 1060.5529,91.536462 c -2.5862,0.286672 -4.8699,2.300964 -5.6707,5.071222 l -1.5671,5.348246 -11.6178,-6.685139 c -0.929,-0.53682 -1.8965,-0.881379 -2.8585,-0.968208 -1.443,-0.130935 -2.9673,0.426563 -3.919,1.52157 -0.9503,1.094319 -1.3369,2.538025 -1.3369,4.103698 V 112.1907 l -11.7563,-6.7313 c -1.2756,-0.72908 -2.4636,-1.20871 -3.8729,-1.01438 -1.1411,0.15781 -2.3051,1.05504 -2.7199,2.16659 -0.4149,1.11154 -0.3356,2.24859 0,3.41182 l 17.0578,59.01125 c 1.0687,3.69987 4.2428,7.43007 7.6994,9.40508 l 33.886,19.36353 c 0.9083,0.51891 1.8476,0.89998 2.7662,1.01438 3.2229,-0.17572 4.7638,-2.00464 6.1772,-5.07122 l 20.1939,-69.98476 c 1.217,-4.21465 -0.4948,-8.95302 -4.2415,-11.15682 l -34.1623,-20.100195 c -0.951,-0.559567 -1.9523,-0.884828 -2.9502,-0.968213 -0.379,-0.03169 -0.7373,-0.04137 -1.1074,0 z m 0.7381,3.964498 c 0.3859,0.03169 0.8407,0.150224 1.2907,0.414846 l 34.1624,20.100194 c 1.8571,1.09294 3.072,4.30148 2.3974,6.63896 l -17.381,60.21032 v -27.75354 l 6.5467,-22.63684 -6.5467,-3.82667 v -3.22645 c 0,-4.19742 -2.4546,-8.46031 -6.0855,-10.5573 l -18.764,-10.83431 1.844,-6.315763 c 0.5051,-1.748982 1.4189,-2.30648 2.536,-2.213447 z m -23.1895,2.766117 c 0.072,-0.031 0.1722,-0.01793 0.3687,0 0.2618,0.02344 0.7125,0.133691 1.1991,0.41485 l 33.9776,19.593683 c 2.0308,1.17288 4.1492,4.80523 4.1492,7.14617 v 58.73491 l -6.5005,-22.49764 c 1.4671,-4.92651 1.2528,-11.82596 -1.0151,-19.17885 -3.7977,-12.31247 -11.9817,-21.42468 -18.764,-21.34543 -0.452,0.005 -0.8986,0.0496 -1.3368,0.13851 -0.162,0.0331 -0.304,0.093 -0.4611,0.13851 l -12.1704,-6.96285 V 99.927162 c 0,-0.886895 0.2342,-1.320351 0.3686,-1.475399 0.068,-0.07787 0.1123,-0.153677 0.1847,-0.184686 l 0,0 z m -18.9942,10.373293 c 0.111,-0.12335 0.4941,0.15574 0.7835,0.3232 l 33.8853,19.36284 c 2.29,1.30794 5.1037,4.84105 5.717,6.96147 l 17.0577,59.05811 c 0.1413,0.52372 -0.5354,0.0703 -0.7373,-0.0462 l -33.8854,-19.36354 c -2.2837,-1.30518 -5.1539,-4.90031 -5.7624,-7.00764 L 1019.108,108.9167 c -0.034,-0.15022 -0.039,-0.23498 0,-0.27633 l 0,0 z m 19.7777,23.14334 -3.0424,27.70806 31.9957,18.44218 -28.9533,-46.15024 z m 58.4586,31.16537 -1.2907,4.4262 32.0873,18.53383 c -7.9978,3.458 -15.0882,2.71099 -22.3598,3.87216 -4.1533,0.66362 -8.3465,2.05564 -12.2642,5.34825 -3.5462,2.9818 -6.8243,7.55273 -9.9577,14.24544 -4.3801,-2.12938 -8.1785,-2.75785 -11.4794,-1.84408 -3.8218,1.05918 -6.6547,3.83701 -9.2659,7.05381 -2.9942,3.68747 -5.8644,8.05855 -9.5436,12.17121 -2.7922,2.79506 -5.568,5.51983 -8.8979,7.65265 l -57.25948,-33.05561 c 7.8463,-4.74114 13.89748,-11.82113 21.39168,-17.01295 3.2602,-2.29683 6.3385,-3.82667 9.6352,-4.19466 3.3794,-0.37833 7.1214,0.35903 11.8487,3.08794 l 2.0743,1.24454 c 0.5306,-1.2342 1.1033,-2.46428 1.66,-3.68815 -2.2375,-1.18047 -4.6701,-2.77508 -6.8691,-3.68886 -3.1961,-1.32586 -6.293,-1.56636 -9.1742,-1.24454 -4.3938,0.49065 -8.2694,2.49392 -11.9411,5.11739 -7.34186,5.24832 -14.21098,12.99607 -23.88068,18.58 l -10.88049,6.50046 71.78197,41.447 33.1487,-19.13337 c 1.4133,3.32086 6.8195,4.0472 11.4338,1.38307 4.6089,-2.66138 7.0201,-7.91246 8.4362,-12.8624 l 47.532,-27.43172 -45.9656,-26.50761 0,0 z"
         id="path3944"
         inkscape:connector-curvature="0"
         style="fill:#ffffff" />
      <path
         style="opacity:0.3160173;fill:#ffffff;fill-opacity:1;stroke:none"
         d="m 1171.9212,169.50503 c 0,63.39036 -18.7162,-62.6952 -114.7783,-24.31372 -74.98705,29.96093 -114.77845,87.70408 -114.77845,24.31372 0,-63.39037 51.38804,-114.778413 114.77845,-114.778413 63.3903,0 114.7783,51.388043 114.7783,114.778413 z"
         id="path3946"
         inkscape:connector-curvature="0"
         sodipodi:nodetypes="sssss" />
      <path
         transform="matrix(0.43857878,0,0,0.43857878,585.98394,62.777383)"
         style="opacity:0.18181817;fill:#ffffff;fill-opacity:1;stroke:none;filter:url(#filter3904)"
         d="m 1313.5143,221.15625 c -4.2837,129.81694 -110.8431,233.73108 -241.7021,233.73108 -121.09498,0 -221.41324,-88.9864 -239.10293,-205.13924 -0.0903,2.71542 -0.11552,5.43585 -0.11552,8.17323 0,133.57726 108.26927,241.84654 241.84655,241.84654 133.5774,0 241.8755,-108.26928 241.8755,-241.84654 0,-12.50319 -0.972,-24.77313 -2.8015,-36.76507 z"
         id="path3948"
         inkscape:connector-curvature="0" />
    </g>
  </g>
</svg>
